<svg width="46" height="48" viewBox="0 0 46 48" fill="none" xmlns="http://www.w3.org/2000/svg">
<path d="M3.60999 17.8939V7.04168L7.64337 17.8939H13.7491V3.89966H10.1614V14.7742L6.10578 3.89966H0V17.8939H3.60999Z" fill="#6E6F70"/>
<path d="M15.4206 46.4178V41.1811L17.3593 46.4178H20.323V39.6658H18.5849V44.9025L16.6239 39.6658H13.6602V46.4178H15.4206Z" fill="#EE1C25"/>
<path d="M10.4728 46.4178L12.9909 39.6658H10.9631L9.38094 44.4791L7.84335 39.6658H5.7041L8.15533 46.4178H10.4728Z" fill="#EE1C25"/>
<path d="M5.14757 46.4178V45.103H1.9387V43.6546H4.94702V42.3621H1.9387V40.9582H5.05844V39.6658H0V46.4178H5.14757Z" fill="#EE1C25"/>
<path d="M10.1614 20.6797V31.5542L6.10578 20.6797H0V34.6962H3.60999V23.844L7.64337 34.6962H13.7491V20.6797H10.1614Z" fill="#6E6F70"/>
<path d="M27.7871 26.4957V31.0193C27.7871 33.4259 28.5893 34.919 31.1742 34.919C32.1547 34.919 33.1798 34.7853 34.0934 34.451L34.0043 32.0443C33.6254 32.2003 33.2466 32.2672 32.8678 32.2672C31.8873 32.2672 31.6645 31.621 31.6645 30.7964V26.4957H33.982V24.089H31.6645V20.8801L27.7871 22.1057V24.089H25.9375V26.4957H27.7871Z" fill="#6E6F70"/>
<path d="M18.717 28.3898C18.7838 27.2979 19.2964 25.8717 20.7225 25.8717C22.1487 25.8717 22.3715 27.2979 22.3715 28.3898H18.717ZM25.6918 30.2616V29.6154C25.6918 26.2728 24.3325 23.8884 20.6557 23.8884C17.4468 23.8884 14.9287 25.8717 14.9287 29.348C14.9287 33.0917 17.5359 34.9189 21.1459 34.9189C22.3938 34.9189 23.82 34.7852 25.157 34.3396L25.0233 32.022C24.0428 32.5346 22.7949 32.646 21.9036 32.646C20.4105 32.646 18.8284 32.022 18.7393 30.2616H25.6918Z" fill="#6E6F70"/>
<path d="M45.4368 34.6962V32.245H39.9773L45.3477 26.9637V24.0891H35.6988V26.5181H40.9801L35.5205 31.7993V34.6962H45.4368Z" fill="#6E6F70"/>
<path d="M17.1148 16.3118C18.4073 17.5597 20.19 18.1614 22.4852 18.1614C27.0312 18.1614 29.7944 15.5541 29.7944 10.9414C29.7944 6.32862 27.098 3.72141 22.4852 3.72141C17.8725 3.72141 15.2207 6.41776 15.2207 10.9414C15.2207 13.2812 15.8447 15.0862 17.1148 16.3118ZM20.1232 13.9051C19.6998 13.0138 19.5438 11.8996 19.5438 10.9414C19.5438 9.06954 20.1232 6.44004 22.4852 6.44004C24.8473 6.44004 25.4713 9.00269 25.4713 10.9414C25.4713 12.8801 24.9588 15.465 22.4852 15.465C21.3265 15.465 20.5688 14.8188 20.1232 13.9051ZM21.6385 0H18.7638V2.65178H21.6385V0ZM26.2289 0H23.3766V2.65178H26.2289V0Z" fill="#6E6F70"/>
<path d="M27.2742 43.6771H25.6029V44.0782H26.8286V45.8832C26.4943 45.9946 26.2046 46.0392 25.8258 46.0392C24.4888 46.0392 23.6865 45.1701 23.6865 43.8777C23.6865 42.652 24.5333 41.7161 25.8704 41.7161C26.316 41.7161 26.784 41.8053 27.1851 42.0058L27.2297 41.5601C26.8731 41.3819 26.2715 41.2927 25.8926 41.2927C24.3328 41.2927 23.1963 42.3846 23.1963 43.8777C23.1963 45.3707 24.2436 46.4626 25.8035 46.4626C26.3606 46.4626 26.7617 46.3734 27.2742 46.1729V43.6771ZM28.745 46.3734V44.4793C28.745 43.8777 28.8787 43.0086 29.6586 43.0086C29.77 43.0086 29.8592 43.0086 29.9483 43.0531L29.9929 42.6075C29.8815 42.5852 29.77 42.5852 29.6586 42.5852C29.2129 42.5852 28.8341 42.964 28.7004 43.3428L28.6781 42.652H28.2993C28.3216 42.9417 28.3439 43.2537 28.3439 43.5434V46.3734H28.745ZM31.0625 42.652H30.6614V44.925C30.6614 45.7941 30.9288 46.4626 31.9093 46.4626C32.4664 46.4626 32.8229 46.2175 33.1126 45.7272L33.1349 46.3734H33.4914C33.4692 46.0838 33.4469 45.7941 33.4469 45.5044V42.652H33.0458V44.6353C33.0458 45.3484 32.8006 46.0615 31.9539 46.0615C31.1962 46.0615 31.0625 45.5044 31.0625 44.8804V42.652ZM35.0067 48.0002V45.7718C35.185 46.2175 35.653 46.4626 36.1432 46.4626C37.2574 46.4626 37.6585 45.4598 37.6585 44.5016C37.6585 43.5434 37.2797 42.5852 36.1432 42.5852C35.653 42.5852 35.1627 42.8749 34.9622 43.3206L34.9399 42.652H34.5611C34.5833 43.0977 34.6056 43.5211 34.6056 43.9445V48.0002H35.0067ZM35.2296 45.5489C35.0513 45.237 34.9845 44.8581 34.9845 44.5016C34.9845 43.8108 35.2964 42.964 36.0987 42.964C37.0123 42.964 37.2128 43.7662 37.2128 44.5016C37.2128 45.237 36.99 46.0615 36.0987 46.0615C35.6975 46.0615 35.4079 45.8609 35.2296 45.5489ZM39.0401 48.0002V45.7718C39.2407 46.2175 39.7086 46.4626 40.1989 46.4626C41.2908 46.4626 41.6919 45.4598 41.6919 44.5016C41.6919 43.5434 41.3354 42.5852 40.1989 42.5852C39.7086 42.5852 39.2184 42.8749 39.0178 43.3206L38.9733 42.652H38.5944C38.6167 43.0977 38.639 43.5211 38.639 43.9445V48.0002H39.0401ZM39.2852 45.5489C39.107 45.237 39.0178 44.8581 39.0178 44.5016C39.0178 43.8108 39.3298 42.964 40.1543 42.964C41.0457 42.964 41.2462 43.7662 41.2462 44.5016C41.2462 45.237 41.0234 46.0615 40.1543 46.0615C39.7309 46.0615 39.4635 45.8609 39.2852 45.5489ZM42.8061 44.2119C42.8507 43.6994 43.1626 42.9417 43.9649 42.9417C44.7225 42.9417 44.9008 43.6325 44.9231 44.2119H42.8061ZM45.3687 44.5685V44.3902C45.3687 43.4765 45.0568 42.5852 43.9426 42.5852C42.8952 42.5852 42.3604 43.5434 42.3604 44.5016C42.3604 45.5489 42.8952 46.4626 44.1654 46.4626C44.522 46.4626 44.7894 46.418 45.1236 46.262L45.1013 45.8609C44.8339 46.0169 44.522 46.0838 44.1877 46.0838C43.2295 46.0838 42.8061 45.3707 42.8061 44.5685H45.3687Z" fill="#6E6F70"/>
</svg>
